<?xml version="1.0" encoding="utf-8"?>
<!-- Generator: Adobe Illustrator 26.2.1, SVG Export Plug-In . SVG Version: 6.00 Build 0)  -->
<svg version="1.1" id="Layer_1" xmlns="http://www.w3.org/2000/svg" xmlns:xlink="http://www.w3.org/1999/xlink" x="0px" y="0px"
	 viewBox="0 0 512 512" style="enable-background:new 0 0 512 512;" xml:space="preserve">
<style type="text/css">
	.st0{fill:url(#SVGID_1_);}
	.st1{fill:#B697E9;}
	.st2{fill:#9572CF;}
	.st3{fill:#4475AA;}
	.st4{fill:#305277;}
</style>
<linearGradient id="SVGID_1_" gradientUnits="userSpaceOnUse" x1="256" y1="0" x2="256" y2="512">
	<stop  offset="6.407077e-04" style="stop-color:#CFB3FF"/>
	<stop  offset="1" style="stop-color:#B3C3FF"/>
</linearGradient>
<path class="st0" d="M512,279.1v-45.1C500.6,102.8,390.6,0,256.5,0C114.8,0,0,114.8,0,256.5C0,390.6,102.8,500.6,233.9,512h45.1
	C402.7,501.2,501.2,402.7,512,279.1z"/>
<path class="st1" d="M241,145.2C163.6,199.8,84,248.5,2.5,292.3c6,43.2,22.8,83,47.6,116.5c79.2-27.9,148.9-58.1,182.6-84.1
	C250.9,313.4,260.7,129.7,241,145.2z"/>
<path class="st2" d="M236.2,330c5.4-3.4,6.9-8.4,9-15c2.1-6.6,3.9-14.8,5.5-24.3c3.2-18.9,5.5-42.6,6.7-65.6s1.1-44.9-0.5-60.8
	c-0.8-7.9-1.8-14.1-4-19.1c-1.1-2.5-2.4-5-5.7-6.6c-3.3-1.6-7.7-0.5-10.1,1.4l0.3-0.2C160.9,193.9,82.2,242.1,1.6,285.5
	c0.5,4.5,1.1,9,1.9,13.5c81.3-43.7,160.8-92.2,238.1-146.4c0.9,2.7,2,6.9,2.6,13.3c1.5,14.6,1.6,36.3,0.5,58.8s-3.4,45.9-6.5,64.1
	c-1.5,9.1-3.3,16.9-5.1,22.5s-4.6,8.7-3.7,8.1l-0.3,0.2l-0.3,0.2c-31.9,24.6-100.4,54.7-178.3,82.3c-1.4,0.5-2.9,1-4.3,1.5
	c2.6,3.7,5.2,7.2,7.9,10.7c0.2-0.1,0.4-0.1,0.6-0.2C132.9,386.3,201.2,356.8,236.2,330z"/>
<path class="st3" d="M275.5,145.2c-19.6-15.5-9.9,168.2,8.3,179.5c33.3,25.7,101.8,55.5,179.9,83.1c24.7-33.8,41.4-73.8,47.1-117.3
	C430.4,247.2,351.8,199,275.5,145.2z"/>
<path class="st4" d="M279.1,140l0.3,0.2c-2.4-1.9-6.9-3-10.1-1.4c-3.3,1.6-4.6,4.1-5.7,6.6c-2.2,4.9-3.2,11.1-4,19.1
	c-1.6,15.8-1.7,37.8-0.5,60.8c1.1,22.9,3.5,46.6,6.7,65.6c1.6,9.5,3.4,17.7,5.5,24.3c2.1,6.5,3.6,11.6,9,15
	c34.6,26.5,102,55.7,179.3,83.1c2.7-3.5,5.3-7.1,7.9-10.8c-0.5-0.2-1-0.3-1.5-0.5c-77.9-27.6-146.4-57.7-178.3-82.3l-0.3-0.2
	l-0.3-0.2c0.9,0.6-1.9-2.5-3.7-8.1s-3.6-13.4-5.1-22.5c-3.1-18.2-5.4-41.6-6.5-64.1c-1.1-22.5-1-44.2,0.5-58.8
	c0.7-6.4,1.7-10.6,2.6-13.3c76.3,53.6,154.7,101.5,234.9,144.7c0.7-4.5,1.3-9,1.8-13.5C432.2,240.8,354.6,193.2,279.1,140z"/>
</svg>
